# xmcd
#
# Track frame offsets:
#	150
#	17850
#	38364
#	55389
#	73303
#	90541
#	106291
#	123466
#	141835
#	156005
#	173705
#	194219
#	211244
#	229158
#	246396
#	262146
#	279321
#	297690
#
# Disc length: 4158 seconds
#
# Revision: 2
# Processed by: cddbd v1.5.2PL0 Copyright (c) Steve Scherf et al.
# Submitted via: audiograbber 1.83.01
#
DISCID=19103c12
DTITLE=Various Artist - PHN0108
DYEAR=2001
DGENRE=Karaoke
TTITLE0=Alan Jackson - Where I Come From
TTITLE1=Brooks and Dunn - Only In America
TTITLE2=Faith Hill - There You'll Be (Country Mix)
TTITLE3=Jessica Andrews - Helplessly, Hopelessly
TTITLE4=Blake Shelton - Austin
TTITLE5=Diamond Rio - Sweet Summer
TTITLE6=John Michael Montgomery - Even Then
TTITLE7=Warren Brothers - Where Does It Hurt
TTITLE8=Billy Gilman - She's My Girl
TTITLE9=Alan Jackson - Where I Come From (Vocal)
TTITLE10=Brooks and Dunn - Only In America (Vocal)
TTITLE11=Faith Hill - There You'll Be (Country Mix) (Vocal)
TTITLE12=Jessica Andrews - Helplessly, Hopelessly (Vocal)
TTITLE13=Blake Shelton - Austin (Vocal)
TTITLE14=Diamond Rio - Sweet Summer (Vocal)
TTITLE15=John Michael Montgomery - Even Then (Vocal)
TTITLE16=Warren Brothers - Where Does It Hurt (Vocal)
TTITLE17=Billy Gilman - She's My Girl (Vocal)
EXTD=fixed album name and vocal listings
EXTT0=
EXTT1=
EXTT2=
EXTT3=
EXTT4=
EXTT5=
EXTT6=
EXTT7=
EXTT8=
EXTT9=
EXTT10=
EXTT11=
EXTT12=
EXTT13=
EXTT14=
EXTT15=
EXTT16=
EXTT17=
PLAYORDER=
